<svg width="45" height="60" viewBox="0 0 45 60" fill="none" xmlns="http://www.w3.org/2000/svg">
<path d="M7.65955 18.8463V29.6626C7.65955 30.4539 7.01964 31.1007 6.22837 31.1007H6.02195C5.23067 31.1007 4.58389 30.4546 4.58389 29.6626V18.8463C4.58389 18.0412 5.21691 17.4082 6.02195 17.4082H6.22837C7.03341 17.4082 7.65955 18.0412 7.65955 18.8463Z" fill="#39E991"/>
<path d="M13.515 18.3096V35.126C13.515 35.9035 12.8544 36.5571 12.0769 36.5571H11.8498C11.0586 36.5571 10.4187 35.9165 10.4187 35.126V18.3096C10.4187 17.5046 11.0448 16.8716 11.8498 16.8716H12.0769C12.8682 16.8716 13.515 17.5184 13.515 18.3096Z" fill="#39E991"/>
<path d="M19.3429 17.7725V39.2058C19.3429 39.997 18.6961 40.6369 17.9117 40.6369H17.6846C16.8934 40.6369 16.2466 39.997 16.2466 39.2058V17.7725C16.2466 16.9813 16.8934 16.3345 17.6846 16.3345H17.9117C18.6961 16.3345 19.3429 16.9813 19.3429 17.7725Z" fill="#39E991"/>
<path d="M44.3128 43.3412V43.9818C44.3128 45.9428 42.7172 47.5323 40.7555 47.5323C31.9414 47.5323 29.9185 47.5322 29.3474 47.6072V47.5866C24.3245 48.4673 20.5608 52.7615 20.1555 58.0521C20.066 58.2317 20.0592 58.4443 20.1417 58.6307C20.1417 58.6376 20.1417 58.6376 20.1417 58.6445V58.8509C19.6532 59.2645 16.7358 60 11.6648 60C6.64189 60 3.73137 59.2775 3.20844 58.8654C3.19468 58.0122 3.07771 56.2507 2.81625 55.4319C2.7268 55.1773 2.63047 54.9572 2.53414 54.737C2.26579 54.0964 1.89424 53.4634 1.447 52.9067C1.41947 52.8723 1.39195 52.8448 1.36443 52.8173C1.33691 52.7898 1.31626 52.7622 1.29562 52.7416C0.999754 52.4044 0.731409 52.1292 0.490586 51.909C0.153434 51.2416 0.174076 50.7256 0.208479 49.5428C0.22224 49.1162 0.236001 48.6276 0.236001 48.0359V28.9125C0.236001 26.4768 1.10984 24.5158 2.67175 23.3736V29.635C2.67175 31.4859 4.17174 32.9859 6.01575 32.9859H6.24281C7.11666 32.9859 7.90793 32.6487 8.50655 32.1051V35.0989C8.50655 36.9429 10.0065 38.4422 11.8505 38.4422H12.0776C12.9515 38.4422 13.7565 38.1058 14.3551 37.5409V39.1784C14.3551 41.0225 15.8551 42.5224 17.6991 42.5224H17.9262C19.7702 42.5224 21.2702 41.0218 21.2702 39.1784V21.6878H21.2426C21.3252 20.9172 21.3183 18.736 21.3046 11.7866C21.2908 6.86001 21.2702 1.94722 21.2702 1.94722C21.2702 0.873843 22.144 0 23.2243 0H23.7403C24.8412 0 25.7075 0.860081 25.7075 1.94722C25.6456 35.1877 25.7006 35.4767 25.7219 35.573C26.0935 37.3138 27.3114 38.7663 28.9903 39.4743C29.2792 39.5775 29.5958 39.7014 29.9398 39.7564C29.9742 39.764 30.0086 39.764 30.043 39.764L40.7555 39.7839C42.7165 39.7839 44.3128 41.3803 44.3128 43.3412Z" fill="#39E991"/>
</svg>
